<svg width="307" height="276" viewBox="0 0 307 276" fill="none" xmlns="http://www.w3.org/2000/svg">
<path d="M188.329 271.408C187.495 268.844 183.798 257.514 180.1 246.185C176.403 234.855 173.183 225.075 172.945 224.419C172.647 223.763 171.036 218.814 169.307 213.388C167.638 207.961 163.762 196.035 160.72 186.852C157.679 177.669 152.491 161.688 149.152 151.371C145.753 141.055 142.831 132.17 142.533 131.693C142.294 131.156 141.877 129.845 141.638 128.712C141.4 127.579 140.982 126.267 140.684 125.73C140.446 125.253 139.253 121.616 138.001 117.68C133.886 104.442 121.662 67.7091 121.125 67.0532C120.827 66.6954 120.41 65.7413 120.171 64.9065C119.635 62.9983 116.355 53.8151 115.401 51.4895C114.983 50.5354 113.791 47.3154 112.717 44.3338C111.644 41.4119 110.571 38.4304 110.273 37.7744C109.974 37.1185 108.782 34.0177 107.649 30.9169C106.456 27.8161 105.383 24.8345 105.144 24.3575C104.906 23.8208 104.548 24.6556 104.309 26.4445C104.071 28.1142 103.415 31.5132 102.878 34.0177C101.507 40.8752 100.195 47.4346 99.3601 51.7877C98.9427 53.9344 98.4656 56.0811 98.2867 56.5582C98.0482 57.0352 97.5712 59.0627 97.2134 61.0305C96.8556 62.9983 96.14 66.5165 95.663 68.7825C95.1859 71.1081 94.4107 74.9841 93.9337 77.429C93.4566 79.8739 92.6814 83.9288 92.1448 86.3736C91.6081 88.8185 90.8329 92.5752 90.4751 94.722C90.0577 96.8687 89.5806 98.8961 89.4017 99.1943C89.1632 99.5521 88.8054 101.162 88.5669 102.832C88.3284 104.978 87.6128 106.589 86.3605 108.139C84.6313 110.226 84.3331 110.345 81.8882 110.047C79.1452 109.749 77.893 108.676 77.237 106.052C76.8196 104.323 73.5995 95.2586 72.4665 92.6349C71.9895 91.6808 70.5584 87.5066 69.1868 83.3921C67.8153 79.2775 66.3246 75.4015 65.9071 74.7456C65.4897 74.0897 64.953 72.5989 64.7145 71.4659C64.476 70.3329 64.0586 69.1403 63.8201 68.7825C63.5815 68.4843 62.21 64.7276 60.8385 60.5534C59.3477 56.0811 58.0359 53.0399 57.6184 53.1592C57.2607 53.2785 56.724 54.3518 56.4258 55.5444C56.1277 56.7371 55.6506 57.7508 55.4121 57.7508C55.1736 57.7508 54.8158 58.526 54.5773 59.5397C54.3387 60.4938 53.981 61.3286 53.6828 61.3286C53.3846 61.3286 53.0269 62.1635 52.7883 63.1176C52.5498 64.0717 52.192 64.9065 51.8939 64.9065C51.6554 64.9065 51.2976 65.7413 51.059 66.7551C50.2838 70.6907 51.1187 70.5714 25.2985 70.7503C-1.47581 70.9292 0.0149675 71.2274 0.0149675 65.8009C0.0149675 60.4938 -1.11802 60.7323 22.4362 60.7323C41.1007 60.7323 42.9492 60.6131 42.9492 59.7782C42.9492 59.2416 43.9033 56.7967 45.0363 54.4114C46.1693 52.0262 47.1234 49.641 47.1234 49.1639C47.1234 48.6272 47.3619 48.2098 47.6601 48.2098C47.9582 48.2098 48.3757 47.375 48.6142 46.4209C48.8527 45.4072 49.2105 44.632 49.5086 44.632C49.8068 44.632 50.1646 43.7971 50.4031 42.843C50.9398 40.5174 53.6828 35.0314 54.9947 33.7195C56.3066 32.348 60.1826 32.4673 61.8522 33.8388C62.5678 34.4351 63.343 35.6277 63.5815 36.5222C63.7604 37.357 64.1778 38.2515 64.476 38.4304C64.7742 38.6092 65.0127 39.3248 65.0127 40.0404C65.0723 40.756 65.5494 42.4256 66.2053 43.7375C66.8612 45.0494 67.3383 46.4209 67.3979 46.7787C67.3979 47.375 68.6502 50.3565 69.8428 52.5033C70.1409 53.0996 70.3795 54.0537 70.3795 54.5903C70.4391 55.1866 70.9161 56.7371 71.5721 58.0489C72.228 59.3608 72.7051 60.9112 72.7647 61.4479C72.7647 61.9846 73.0032 62.5809 73.3014 62.7598C73.5995 62.9387 74.017 64.0717 74.2555 65.2643C74.4344 66.4569 74.8518 67.888 75.1499 68.4247C76.2829 70.4522 77.4755 73.6126 77.8333 75.6401C78.0719 76.773 78.4893 78.0253 78.7278 78.3234C78.9663 78.6812 79.3837 79.8142 79.6223 80.8876C79.8011 81.9013 80.2782 82.7958 80.5764 82.7958C80.8745 82.7958 81.113 83.3921 81.113 84.1077C81.113 86.8507 82.0671 84.2865 82.7231 79.6353C84.1542 69.8559 84.7505 66.3973 85.2276 65.5028C85.5257 64.9661 85.9431 63.1176 86.1817 61.3286C86.4202 59.5397 86.8376 57.8104 87.0761 57.4526C87.3147 57.1545 87.7321 55.0674 87.9706 52.861C88.1495 50.5951 88.5669 48.8061 88.8651 48.8061C89.1036 48.8061 89.521 47.0172 89.7595 44.8109C89.998 42.6642 90.4155 40.3982 90.7136 39.9211C91.0118 39.3845 91.4888 37.357 91.787 35.3892C92.1448 33.4214 92.8007 29.7839 93.2777 27.339C93.8144 24.8941 94.4704 21.2566 94.8281 19.2888C95.1859 17.321 95.7226 15.1743 96.0208 14.5184C96.3189 13.8624 96.7363 11.835 96.9749 10.046C97.1538 8.2571 97.5712 6.52781 97.8097 6.17002C98.0482 5.87187 98.406 4.79851 98.6445 3.84441C99.2408 1.51881 100.433 0.445451 103.057 0.0876652C104.667 -0.150859 105.621 0.0876652 106.516 0.922498C107.768 2.05549 109.736 5.57371 109.736 6.7067C109.736 7.06448 110.153 8.13784 110.63 9.0323C111.107 9.92677 111.644 11.5964 111.883 12.7294C112.061 13.8624 112.479 14.8165 112.777 14.8165C113.075 14.8165 113.314 15.2936 113.314 15.8899C113.314 16.4265 113.672 17.6192 114.149 18.5136C114.626 19.4081 115.162 20.8989 115.401 21.9126C115.639 22.9263 116.057 23.8804 116.355 24.0593C116.653 24.2978 116.892 24.8941 116.892 25.4308C116.951 25.9675 117.428 27.5179 118.084 28.8298C118.74 30.1417 119.217 31.9306 119.277 32.8847C119.277 33.7791 119.575 34.4947 119.873 34.4947C120.231 34.4947 120.469 34.9718 120.469 35.5681C120.469 36.1644 120.887 37.1781 121.364 37.834C121.841 38.4304 122.258 39.3845 122.258 39.8615C122.258 40.3385 122.795 41.8293 123.451 43.1412C124.107 44.4531 124.584 45.8842 124.644 46.3016C124.644 46.6594 124.942 47.0172 125.24 47.0172C125.598 47.0172 125.836 47.5539 125.836 48.2695C125.836 49.3428 127.446 53.517 128.758 55.9619C129.056 56.4985 129.474 57.7508 129.712 58.8241L130.13 60.7323H142.831H155.532L156.785 63.8928C157.441 65.5624 158.275 68.0669 158.574 69.3788C159.766 74.3282 160.601 77.1308 161.078 77.7271C161.317 78.0849 161.674 79.3372 161.913 80.5894C162.151 81.782 162.569 82.915 162.807 83.0939C163.106 83.2728 163.463 84.4654 163.702 85.7773C163.94 87.0892 164.358 88.2818 164.656 88.5203C164.954 88.6992 165.193 89.4148 165.193 90.1304C165.193 90.8459 165.61 92.2175 166.087 93.1716C166.564 94.066 166.982 95.2586 166.982 95.7357C166.982 96.2127 167.339 97.465 167.816 98.4787C168.234 99.5521 169.605 103.607 170.798 107.543C172.05 111.478 173.243 115.116 173.541 115.593C173.779 116.129 174.197 117.441 174.435 118.574C174.674 119.707 175.091 120.96 175.33 121.258C175.568 121.616 175.986 122.808 176.224 123.941C176.463 125.074 176.88 126.386 177.119 126.923C177.357 127.4 178.192 129.845 178.908 132.289C179.623 134.734 180.399 137.179 180.637 137.656C180.935 138.193 181.353 139.505 181.591 140.638C181.83 141.771 182.247 143.023 182.486 143.321C182.724 143.679 183.142 144.872 183.38 146.005C183.619 147.138 184.036 148.449 184.275 148.986C184.513 149.463 185.348 151.908 186.063 154.353C186.779 156.798 187.554 159.243 187.852 159.779C188.151 160.316 188.568 161.747 188.747 162.94C188.985 164.132 189.403 165.206 189.641 165.385C189.939 165.564 190.297 166.756 190.536 168.068C190.774 169.38 191.192 170.573 191.49 170.811C191.788 170.99 192.027 171.706 192.027 172.421C192.027 173.137 192.444 174.508 192.921 175.462C193.398 176.357 193.815 177.549 193.815 178.026C193.815 178.503 194.173 179.756 194.65 180.769C195.068 181.843 196.439 185.898 197.632 189.833C198.884 193.769 200.077 197.406 200.375 197.883C200.613 198.42 201.031 199.732 201.269 200.865C201.508 201.998 201.925 203.31 202.223 203.847C202.522 204.324 202.999 205.874 203.356 207.305C203.953 209.75 204.966 210.585 205.384 209.094C205.563 208.677 206.636 205.099 207.829 201.163C209.021 197.228 210.214 193.59 210.453 193.113C210.751 192.576 211.168 191.264 211.407 190.131C211.645 188.998 212.063 187.806 212.301 187.448C212.54 187.15 212.957 185.898 213.196 184.765C213.434 183.632 213.851 182.439 214.09 182.081C214.329 181.783 214.746 180.531 214.984 179.398C215.223 178.265 215.64 176.953 215.879 176.416C216.177 175.939 217.787 171.109 219.516 165.683C221.186 160.256 222.975 155.009 223.392 153.935C223.869 152.922 224.227 151.67 224.227 151.192C224.227 150.715 224.645 149.523 225.122 148.628C225.599 147.674 226.016 146.482 226.016 145.945C226.016 145.408 226.434 144.156 226.911 143.262C227.388 142.307 227.805 141.115 227.805 140.578C227.805 140.041 228.223 138.789 228.7 137.895C229.177 136.941 229.594 135.569 229.594 134.854C229.594 134.138 229.833 133.422 230.131 133.244C230.429 133.005 230.846 131.812 231.085 130.501C231.323 129.189 231.681 127.996 231.979 127.817C232.277 127.638 232.635 126.446 232.874 125.134C233.112 123.822 233.47 122.629 233.768 122.45C234.007 122.271 234.424 121.198 234.663 120.005C234.842 118.813 235.259 117.382 235.557 116.845C235.855 116.308 236.69 113.863 237.406 111.419C238.121 108.974 239.075 106.111 239.493 105.038C239.97 104.024 240.328 102.653 240.328 101.997C240.328 101.281 240.566 100.625 240.864 100.447C241.162 100.208 241.58 99.0154 241.818 97.7035C242.057 96.3916 242.415 95.199 242.713 95.0201C243.011 94.8412 243.369 93.6486 243.607 92.3367C243.846 91.0248 244.204 89.8322 244.502 89.6533C244.74 89.4744 245.158 88.4011 245.396 87.2085C245.575 86.0158 245.993 84.5847 246.291 84.048C246.589 83.5113 247.781 79.8739 248.974 75.9382C251.18 68.7229 252.313 65.3835 253.625 62.3424L254.341 60.6727L279.147 60.8516L304.013 61.0305L305.266 62.5213C306.995 64.668 306.876 67.7091 304.968 69.4384C303.536 70.81 303.059 70.8696 295.307 70.8696C286.243 70.8696 286.243 70.8696 285.349 75.0437C285.11 76.1767 284.693 77.429 284.454 77.7271C284.216 78.0849 283.799 79.2775 283.56 80.4105C283.322 81.5435 282.904 82.7958 282.666 83.0939C282.427 83.4517 282.01 84.6443 281.771 85.7773C281.533 86.9103 281.115 88.1626 280.877 88.4607C280.638 88.8185 280.221 90.0111 279.982 91.1441C279.744 92.2771 279.326 93.589 279.088 94.1256C278.79 94.6027 276.404 101.878 273.721 110.226C271.038 118.574 268.593 125.849 268.354 126.326C268.116 126.863 267.698 128.175 267.46 129.308C267.221 130.441 266.804 131.693 266.565 131.991C266.327 132.349 265.909 133.542 265.671 134.675C265.432 135.808 265.015 137.06 264.776 137.358C264.538 137.716 264.12 138.908 263.882 140.041C263.643 141.174 263.226 142.427 262.987 142.725C262.749 143.083 262.331 144.275 262.093 145.408C261.854 146.541 261.437 147.793 261.198 148.092C260.96 148.449 260.543 149.642 260.304 150.775C260.065 151.908 259.648 153.16 259.41 153.458C259.171 153.816 258.754 155.009 258.515 156.142C258.277 157.275 257.859 158.587 257.561 159.123C257.322 159.6 255.295 165.683 253.148 172.54C250.942 179.458 248.914 185.54 248.616 186.077C248.318 186.613 247.901 188.164 247.722 189.535C247.483 190.847 247.126 191.92 246.887 191.92C246.589 191.92 246.231 192.994 245.993 194.365C245.754 195.677 245.217 197.526 244.74 198.361C244.263 199.255 243.905 200.388 243.905 200.925C243.905 201.461 243.488 202.714 243.011 203.608C242.534 204.562 242.117 205.934 242.117 206.649C242.117 207.365 241.878 208.08 241.58 208.259C241.282 208.498 240.864 209.69 240.626 211.002C240.387 212.314 240.029 213.507 239.731 213.686C239.433 213.865 239.075 215.057 238.837 216.369C238.598 217.681 238.241 218.874 237.942 219.052C237.704 219.231 237.286 220.305 237.048 221.497C236.869 222.69 236.452 224.121 236.153 224.658C235.855 225.194 233.053 233.662 229.892 243.501C226.732 253.34 223.869 261.808 223.631 262.345C223.333 262.881 222.915 264.312 222.736 265.505C222.498 266.698 222.081 267.771 221.842 267.95C221.544 268.129 221.186 269.321 220.948 270.633C220.709 271.945 220.292 273.138 219.993 273.376C219.695 273.555 219.457 274.211 219.457 274.867C219.457 275.94 218.92 276 204.668 276H189.88L188.329 271.408Z" fill="white"/>
</svg>
